<svg xmlns="http://www.w3.org/2000/svg" viewBox="0 0 180 180" role="img" aria-labelledby="seed-title seed-desc">
  <title id="seed-title">혼디길 씨앗</title>
  <desc id="seed-desc">제주의 따뜻한 흙에 포근히 놓인 작은 씨앗 일러스트</desc>

  <ellipse cx="90" cy="153" rx="58" ry="10" fill="#25302c" opacity=".13"/>

  <g stroke="#25302c" stroke-width="6" stroke-linecap="round" stroke-linejoin="round">
    <path d="M31 145c8-24 30-37 59-37s52 13 59 37z" fill="#596762"/>
    <path d="M91 49c28 3 46 24 43 50-3 29-23 49-51 46-27-3-43-25-39-52 4-28 23-47 47-44z" fill="#efad57"/>
    <path d="M49 111c8 20 25 32 46 34 16 1 29-6 36-19-19 6-49-3-82-15z" fill="#e85d24" stroke="none"/>
    <path d="M91 49c28 3 46 24 43 50-3 29-23 49-51 46-27-3-43-25-39-52 4-28 23-47 47-44z" fill="none"/>
    <path d="M102 55c-17 7-28 24-28 43 0 15 7 28 19 37" fill="none" stroke="#fffaf0" stroke-width="7" opacity=".88"/>
    <path d="M104 53c5-12 14-20 27-24" fill="none" stroke="#3e7751"/>
    <path d="M129 29c-1-13 8-21 23-20 0 13-8 21-23 20z" fill="#477953"/>
  </g>

  <path d="M54 130c22 8 45 12 69 8" fill="none" stroke="#fffaf0" stroke-width="4" stroke-linecap="round" opacity=".28"/>

  <g fill="#fffaf0" opacity=".24">
    <circle cx="59" cy="127" r="3"/>
    <circle cx="78" cy="136" r="2.5"/>
  </g>
  <g fill="#25302c" opacity=".22">
    <circle cx="49" cy="139" r="3"/>
    <circle cx="70" cy="123" r="2.5"/>
    <circle cx="116" cy="130" r="3"/>
    <circle cx="135" cy="140" r="2.5"/>
  </g>
</svg>
